<svg xmlns="http://www.w3.org/2000/svg" width="1600" height="980" viewBox="0 0 1600 980">
  <defs>
    <style>
      .title { font: 700 28px 'Segoe UI', Arial, sans-serif; fill: #1f2937; }
      .actor-label { font: 600 22px 'Segoe UI', Arial, sans-serif; fill: #111827; }
      .system-label { font: 700 24px 'Segoe UI', Arial, sans-serif; fill: #0f172a; }
      .usecase { fill: #f8fafc; stroke: #2563eb; stroke-width: 2.5; }
      .usecase-text { font: 500 18px 'Segoe UI', Arial, sans-serif; fill: #111827; text-anchor: middle; dominant-baseline: middle; }
      .system-box { fill: #f9fafb; stroke: #475569; stroke-width: 2.5; rx: 18; }
      .connector { stroke: #64748b; stroke-width: 2.5; fill: none; }
      .actor-stroke { stroke: #111827; stroke-width: 3; fill: none; stroke-linecap: round; }
      .actor-head { fill: #111827; }
    </style>
  </defs>

  <rect width="1600" height="980" fill="#ffffff" />
  <text x="800" y="48" text-anchor="middle" class="title">Diagramme de cas d'utilisation - Gestion hospitaliere</text>

  <rect x="330" y="90" width="940" height="820" class="system-box" />
  <text x="800" y="125" text-anchor="middle" class="system-label">Application web de suivi hospitalier</text>

  <ellipse cx="580" cy="210" rx="150" ry="42" class="usecase" />
  <text x="580" y="210" class="usecase-text">S'authentifier</text>

  <ellipse cx="580" cy="320" rx="170" ry="42" class="usecase" />
  <text x="580" y="320" class="usecase-text">Gerer les comptes</text>

  <ellipse cx="580" cy="430" rx="140" ry="42" class="usecase" />
  <text x="580" y="430" class="usecase-text">Gerer les profils</text>

  <ellipse cx="580" cy="540" rx="160" ry="42" class="usecase" />
  <text x="580" y="540" class="usecase-text">Gerer les utilisateurs</text>

  <ellipse cx="810" cy="250" rx="145" ry="42" class="usecase" />
  <text x="810" y="250" class="usecase-text">Gerer les patients</text>

  <ellipse cx="810" cy="380" rx="165" ry="42" class="usecase" />
  <text x="810" y="380" class="usecase-text">Creer un dossier patient</text>

  <ellipse cx="810" cy="510" rx="180" ry="42" class="usecase" />
  <text x="810" y="510" class="usecase-text">Consulter un dossier patient</text>

  <ellipse cx="810" cy="640" rx="190" ry="42" class="usecase" />
  <text x="810" y="640" class="usecase-text">Modifier l'etat de la greffe</text>

  <ellipse cx="810" cy="770" rx="140" ry="42" class="usecase" />
  <text x="810" y="770" class="usecase-text">Ajouter une greffe</text>

  <ellipse cx="1080" cy="300" rx="190" ry="42" class="usecase" />
  <text x="1080" y="300" class="usecase-text">Consulter ses informations</text>

  <ellipse cx="1080" cy="430" rx="180" ry="42" class="usecase" />
  <text x="1080" y="430" class="usecase-text">Consulter son dossier</text>

  <ellipse cx="1080" cy="560" rx="180" ry="42" class="usecase" />
  <text x="1080" y="560" class="usecase-text">Consulter les notes medicales</text>

  <ellipse cx="1080" cy="690" rx="175" ry="42" class="usecase" />
  <text x="1080" y="690" class="usecase-text">Consulter l'historique des greffes</text>

  <circle cx="120" cy="190" r="22" class="actor-head" />
  <line x1="120" y1="212" x2="120" y2="286" class="actor-stroke" />
  <line x1="82" y1="240" x2="158" y2="240" class="actor-stroke" />
  <line x1="120" y1="286" x2="88" y2="340" class="actor-stroke" />
  <line x1="120" y1="286" x2="152" y2="340" class="actor-stroke" />
  <text x="120" y="380" text-anchor="middle" class="actor-label">Administrateur</text>

  <circle cx="120" cy="560" r="22" class="actor-head" />
  <line x1="120" y1="582" x2="120" y2="656" class="actor-stroke" />
  <line x1="82" y1="610" x2="158" y2="610" class="actor-stroke" />
  <line x1="120" y1="656" x2="88" y2="710" class="actor-stroke" />
  <line x1="120" y1="656" x2="152" y2="710" class="actor-stroke" />
  <text x="120" y="750" text-anchor="middle" class="actor-label">Medecin</text>

  <circle cx="1480" cy="420" r="22" class="actor-head" />
  <line x1="1480" y1="442" x2="1480" y2="516" class="actor-stroke" />
  <line x1="1442" y1="470" x2="1518" y2="470" class="actor-stroke" />
  <line x1="1480" y1="516" x2="1448" y2="570" class="actor-stroke" />
  <line x1="1480" y1="516" x2="1512" y2="570" class="actor-stroke" />
  <text x="1480" y="610" text-anchor="middle" class="actor-label">Patient</text>

  <line x1="155" y1="210" x2="430" y2="210" class="connector" />
  <line x1="155" y1="290" x2="420" y2="320" class="connector" />
  <line x1="155" y1="315" x2="440" y2="430" class="connector" />
  <line x1="155" y1="340" x2="420" y2="540" class="connector" />
  <line x1="155" y1="365" x2="665" y2="250" class="connector" />

  <line x1="155" y1="580" x2="430" y2="210" class="connector" />
  <line x1="155" y1="600" x2="665" y2="250" class="connector" />
  <line x1="155" y1="625" x2="645" y2="380" class="connector" />
  <line x1="155" y1="650" x2="630" y2="510" class="connector" />
  <line x1="155" y1="675" x2="620" y2="640" class="connector" />
  <line x1="155" y1="700" x2="670" y2="770" class="connector" />

  <line x1="1450" y1="455" x2="1260" y2="300" class="connector" />
  <line x1="1450" y1="475" x2="1260" y2="430" class="connector" />
  <line x1="1450" y1="495" x2="1260" y2="560" class="connector" />
  <line x1="1450" y1="515" x2="1255" y2="690" class="connector" />
  <line x1="1450" y1="435" x2="730" y2="210" class="connector" />
</svg>